<?xml version="1.0" encoding="utf-8"?>
<!-- Generator: Adobe Illustrator 24.0.2, SVG Export Plug-In . SVG Version: 6.00 Build 0)  -->
<svg version="1.1" id="Layer_1" xmlns="http://www.w3.org/2000/svg" xmlns:xlink="http://www.w3.org/1999/xlink" x="0px" y="0px"
	 viewBox="0 0 85 85" style="enable-background:new 0 0 85 85;" xml:space="preserve">
<style type="text/css">
	.st0{fill:#FFFFFF;}
	.st1{display:none;}
	.st2{display:inline;fill:#8CC9F0;}
	.st3{fill:#FB6698;}
</style>
<g>
	<path class="st0" d="M42.5,0C66,0,85,19,85,42.5S66,85,42.5,85S0,66,0,42.5S19,0,42.5,0z"/>
</g>
<g class="st1">
	<path class="st2" d="M53.5,34.6c0,1.1-0.9,1.9-1.9,1.9c-1.1,0-1.9-0.9-1.9-1.9c0-1.1,0.9-1.9,1.9-1.9
		C52.7,32.7,53.5,33.5,53.5,34.6z M58,28.8c0-0.4-0.3-0.6-0.7-0.6c-7,0-10.9,1.6-15.9,6.6c-1.1,1.2-2.3,2.5-3.5,3.9l-7.6,0.4
		c-0.2,0-0.4,0.1-0.5,0.3l-4.5,7.7c-0.1,0.2-0.1,0.6,0.1,0.8l1.3,1.3c0.1,0.1,0.3,0.2,0.5,0.2c0.1,0,0.1,0,0.2,0l5.6-1.7l5.7,5.7
		L37,59c-0.1,0.2,0,0.5,0.2,0.6l1.3,1.3c0.1,0.1,0.3,0.2,0.5,0.2c0.1,0,0.2,0,0.3-0.1l7.7-4.5c0.2-0.1,0.3-0.3,0.3-0.5l0.4-7.6
		c1.4-1.2,2.8-2.4,3.9-3.5C56.2,40,58,35.5,58,28.8z"/>
</g>
<g>
	<path class="st3" d="M25.5,45.9c0,0.3,0,0.5,0,0.7c0.1,2.2,1.2,3,3.3,2.5c1.9-0.5,3.2-1.7,4.6-3c0.2-0.2,0.5-0.2,0.8-0.3
		c0.1,0.3,0.3,0.6,0.3,0.8c-0.8,2.6-2,4.9-4.8,5.9c-2.9,1-5.5-0.1-6.6-3c-1.3-3.5-0.9-6.9,1.2-10c1.5-2.2,4.1-3.2,6.3-2.6
		c1.1,0.3,1.9,1,2.4,2c1.2,2.7-0.1,5.5-2.8,6.4c-1.1,0.3-2.3,0.4-3.5,0.6C26.3,45.9,25.9,45.9,25.5,45.9z M25.8,43.2
		c1.4-0.1,2.7-0.2,3.8-0.8c0.9-0.4,1.1-1.1,0.8-1.8c-0.3-0.7-1.2-1.1-2-0.7C27,40.5,26.2,41.7,25.8,43.2z"/>
	<path class="st3" d="M39.1,45.9c0,0.3,0,0.6,0,0.8c0.1,2.1,1.2,2.9,3.2,2.4c1.8-0.4,3.2-1.6,4.5-2.9c0.1-0.1,0.2-0.2,0.3-0.3
		c0.4-0.3,0.8-0.1,0.9,0.4c0,0.2,0,0.4-0.1,0.6c-0.5,1.6-1.3,3-2.5,4.2c-1.5,1.5-3.3,2-5.3,1.6c-1.2-0.2-2.1-0.9-2.8-1.9
		c-0.8-1.2-1.2-2.5-1.3-3.9c-0.2-2.6,0.2-5.1,1.7-7.3c1-1.5,2.4-2.5,4.2-2.8c3.2-0.6,5.5,1.6,5,4.8c-0.3,1.8-1.2,3.1-2.9,3.6
		c-1.2,0.4-2.4,0.5-3.7,0.7C39.9,45.9,39.5,45.9,39.1,45.9z M39.3,43.2c0.4,0,0.6,0,0.9-0.1c1-0.2,2-0.4,2.9-0.8
		c1.1-0.5,1.2-1.7,0.3-2.4c-0.5-0.4-1.3-0.4-1.9,0C40.4,40.8,39.8,41.9,39.3,43.2z"/>
	<path class="st3" d="M10.8,48.6c1.6-0.2,3.2-0.4,4.8-0.6c1.6-0.2,3.1,0.1,4.3,1.3c0.2,0.2,0.5,0.8,0.4,1c-0.3,0.9-0.7,1.7-1.2,2.5
		c-0.3,0.5-0.8,0.6-1.3,0.2c-2.8-2.1-5.7-1.7-8.6-0.4C8.2,53,8.1,53,7.6,52c-0.4-0.8-0.6-1.6-0.3-2.5c1-2.7,1.2-5.6,1.6-8.4
		c0.3-2.3,0.5-4.6,0.8-7c0-0.4-0.1-0.8-0.2-1.2c0-0.1-0.1-0.3,0-0.4c0.3-0.8,0.6-1.7,1-2.4c0.5-0.8,1.5-0.7,2,0.1
		c0.9,1.5,0.9,3.1,0.6,4.7c-0.7,4.3-1.5,8.7-2.2,13C10.8,48.1,10.8,48.3,10.8,48.6z"/>
	<path class="st3" d="M53.6,39.3c-0.4,0-0.7,0-1.1,0c0-3.2,0-6.4,0-9.6c0.3,0,0.7-0.1,1.1-0.1c0,1.3,0,2.5,0,3.7
		c0.6-0.2,1.1-0.5,1.6-0.7c1.6-0.4,2.6,0.4,2.7,2c0,0.2,0,0.3,0,0.5c0,1.4,0,2.7,0,4.1c-0.4,0-0.7,0-1.2,0c0-0.7,0.1-1.4,0.1-2.1
		c0-0.6,0-1.2,0-1.8c0-0.7-0.1-1.3-0.8-1.7c-0.6-0.3-1.8-0.1-2.3,0.4c-0.1,0.2-0.2,0.4-0.2,0.7C53.6,36.3,53.6,37.8,53.6,39.3z"/>
	<path class="st3" d="M70.7,47.4c0,2.1-1.2,3.6-3,3.7c-1.1,0.1-2-0.4-2.6-1.3c-0.8-1.2-0.6-3.4,0.3-4.5s2.2-1.5,3.4-1
		C70,44.7,70.7,45.8,70.7,47.4z M69.7,47.7c-0.2-0.7-0.4-1.4-0.7-1.9c-0.6-1.1-2.1-1.1-2.8,0c-0.7,1.1-0.7,2.8,0.1,3.9
		c0.7,1,2.1,1,2.7-0.1C69.3,49,69.5,48.3,69.7,47.7z"/>
	<path class="st3" d="M63.4,49.9c0.1,0.6,0,1.1-0.8,1.1c-0.6,0-1.1,0.1-1.7,0c-1.5-0.2-2.5-1.1-2.8-2.5c-0.3-1.6,0.3-3.4,1.5-4.1
		c1.8-1,3.8,0,3.9,2.1c0,0.4,0,0.7,0,1.2c-1.5,0-2.9,0-4.4,0C59.3,49.7,60.5,50.3,63.4,49.9z M62.4,46.9C62.5,45.6,62,45,61,45
		c-1.1,0-1.8,0.8-1.7,1.9C60.3,46.9,61.4,46.9,62.4,46.9z"/>
	<path class="st3" d="M64,39.3c-0.3,0-0.5,0-0.8,0C63.1,39.2,63,39,63,38.9c-0.6,0.2-1.2,0.5-1.8,0.5c-1,0.2-1.9-0.4-2.1-1.2
		c-0.3-1,0.1-2.1,1.1-2.4c0.7-0.3,1.4-0.3,2.1-0.5c0.2,0,0.4-0.1,0.7-0.1c0.2-1.1-0.1-1.5-1.1-1.7c-0.4-0.1-0.8,0-1.2,0
		s-0.8,0.1-1.2,0.2c-0.2-0.6,0-1,0.7-1c0.8,0,1.6-0.1,2.4,0c0.9,0.1,1.4,0.6,1.5,1.6c0,0.4,0,0.7,0,1.1C64,36.7,64,37.9,64,39.3z
		 M63,36c-0.8,0.1-1.5,0.2-2.1,0.4s-0.9,0.7-0.8,1.3c0.1,0.6,0.6,0.8,1.1,0.8c0.7,0,1.4,0,1.8-0.7v-0.1C63,37.2,63,36.7,63,36z"/>
	<path class="st3" d="M77.4,50.9c-0.4,0-0.7,0-1.1,0c0-0.7,0.1-1.5,0.1-2.2c0-0.6,0-1.1,0-1.7c0-0.7,0-1.4-0.8-1.7
		c-0.8-0.4-1.6-0.2-2.2,0.3c-0.2,0.1-0.3,0.5-0.3,0.7c0,1.5,0,3,0,4.5c-0.4,0-0.7,0-1.2,0c0-2.1,0-4.2,0-6.4c0.2,0,0.6-0.1,0.9-0.2
		c0.1,0.3,0.1,0.5,0.2,0.8c0.2-0.1,0.4-0.2,0.5-0.3c0.8-0.5,1.6-0.6,2.5-0.4c0.7,0.2,1.3,0.6,1.3,1.4C77.5,47.4,77.4,49.1,77.4,50.9
		z"/>
	<path class="st3" d="M52.4,53.8c0-0.3,0-0.5-0.1-0.8c0.1,0,0.2-0.1,0.2-0.1c1.3-0.4,1.9-1.4,1.5-2.7c-0.5-1.6-1.2-3.1-1.8-4.6
		c-0.1-0.4-0.3-0.7-0.5-1.2c0.5,0,0.8,0,1.3,0c0.5,1.6,1.1,3.2,1.7,5c0.3-0.9,0.5-1.7,0.8-2.6c0.2-0.8,0.4-1.6,0.7-2.5
		c0.3,0,0.7,0,1.1,0c-0.1,0.3-0.1,0.5-0.2,0.8c-0.9,2.4-1.8,4.9-2.6,7.3C54.2,53.5,53.6,53.9,52.4,53.8"/>
	<path class="st3" d="M76.9,38.5c-0.4-0.1-1,0.5-1.4-0.4c-1.2,0.6-2.5,0.7-3.8,0.4c-1-0.2-1.3-0.6-1.3-1.6c0-0.8,0-1.5,0-2.3
		c0.5,0,0.9,0,1.3,0c0,0.7-0.1,1.4-0.1,2.2c0,0.7,0.3,1.1,0.9,1.2c0.8,0,1.6-0.1,2.4-0.1c0.4,0,0.5-0.3,0.5-0.7c0-0.8,0-1.7,0-2.5
		c0.5,0,0.9,0,1.4,0C76.9,35.9,76.9,37.2,76.9,38.5z"/>
	<path class="st3" d="M71.4,32.9c-0.5,0-0.9-0.5-0.9-1s0.5-1,1.1-0.9c0.5,0.1,0.9,0.5,0.8,1C72.3,32.6,71.9,33,71.4,32.9z"/>
	<path class="st3" d="M76.3,31c0.5,0,0.9,0.4,1,0.9c0,0.5-0.4,1-0.9,1s-1-0.4-1-1C75.4,31.5,75.8,31,76.3,31z"/>
</g>
</svg>
